REM DIRINDEX 1\2,1\3,1\4,1\5
REM DIRNAME "folder01","folder02","folder03","folder04","folder05"
TITLE ""
FILE "P1Q_t_1539-1548.mp3" MP3
  TRACK 01 AUDIO
    TITLE "3:cjc173_5596"
    INDEX 01 00:00:00
  TRACK 02 AUDIO
    TITLE "0:"
    INDEX 01 00:01:23
  TRACK 03 AUDIO
    TITLE "4:cjc173_5597"
    INDEX 01 00:01:45
  TRACK 04 AUDIO
    TITLE "0:"
    INDEX 01 00:03:73
  TRACK 05 AUDIO
    TITLE "5:cjc173_5598"
    INDEX 01 00:04:16
  TRACK 06 AUDIO
    TITLE "0:"
    INDEX 01 00:08:69
  TRACK 07 AUDIO
    TITLE "3:cjc173_5599"
    INDEX 01 00:09:41
  TRACK 08 AUDIO
    TITLE "0:"
    INDEX 01 00:10:60
  TRACK 09 AUDIO
    TITLE "4:cjc173_5600"
    INDEX 01 00:11:04
  TRACK 10 AUDIO
    TITLE "0:"
    INDEX 01 00:15:43
  TRACK 11 AUDIO
    TITLE "5:cjc173_5601"
    INDEX 01 00:15:63
  TRACK 12 AUDIO
    TITLE "0:"
    INDEX 01 00:21:52
  TRACK 13 AUDIO
    TITLE "3:cjc173_5602"
    INDEX 01 00:22:22
  TRACK 14 AUDIO
    TITLE "0:"
    INDEX 01 00:23:43
  TRACK 15 AUDIO
    TITLE "4:cjc173_5603"
    INDEX 01 00:23:62
  TRACK 16 AUDIO
    TITLE "0:"
    INDEX 01 00:25:06
  TRACK 17 AUDIO
    TITLE "5:cjc173_5604"
    INDEX 01 00:25:26
  TRACK 18 AUDIO
    TITLE "0:"
    INDEX 01 00:30:04
  TRACK 19 AUDIO
    TITLE "3:cjc173_5605"
    INDEX 01 00:30:54
  TRACK 20 AUDIO
    TITLE "0:"
    INDEX 01 00:32:01
  TRACK 21 AUDIO
    TITLE "4:cjc173_5606"
    INDEX 01 00:32:22
  TRACK 22 AUDIO
    TITLE "0:"
    INDEX 01 00:36:67
  TRACK 23 AUDIO
    TITLE "5:cjc173_5607"
    INDEX 01 00:37:11
  TRACK 24 AUDIO
    TITLE "0:"
    INDEX 01 00:41:11
  TRACK 25 AUDIO
    TITLE "3:cjc173_5608"
    INDEX 01 00:41:58
  TRACK 26 AUDIO
    TITLE "0:"
    INDEX 01 00:43:02
  TRACK 27 AUDIO
    TITLE "4:cjc173_5609"
    INDEX 01 00:43:22
  TRACK 28 AUDIO
    TITLE "0:"
    INDEX 01 00:46:55
  TRACK 29 AUDIO
    TITLE "5:cjc173_5610"
    INDEX 01 00:46:75
  TRACK 30 AUDIO
    TITLE "0:"
    INDEX 01 00:51:45
  TRACK 31 AUDIO
    TITLE "3:cjc173_5611"
    INDEX 01 00:52:15
  TRACK 32 AUDIO
    TITLE "0:"
    INDEX 01 00:53:30
  TRACK 33 AUDIO
    TITLE "4:cjc173_5612"
    INDEX 01 00:53:52
  TRACK 34 AUDIO
    TITLE "0:"
    INDEX 01 00:56:64
  TRACK 35 AUDIO
    TITLE "5:cjc173_5613"
    INDEX 01 00:57:08
  TRACK 36 AUDIO
    TITLE "0:"
    INDEX 01 01:01:39
  TRACK 37 AUDIO
    TITLE "3:cjc173_5614"
    INDEX 01 01:02:09
  TRACK 38 AUDIO
    TITLE "0:"
    INDEX 01 01:03:23
  TRACK 39 AUDIO
    TITLE "4:cjc173_5615"
    INDEX 01 01:03:42
  TRACK 40 AUDIO
    TITLE "0:"
    INDEX 01 01:07:15
  TRACK 41 AUDIO
    TITLE "5:cjc173_5616"
    INDEX 01 01:07:34
  TRACK 42 AUDIO
    TITLE "0:"
    INDEX 01 01:11:44
  TRACK 43 AUDIO
    TITLE "3:cjc173_5617"
    INDEX 01 01:12:14
  TRACK 44 AUDIO
    TITLE "0:"
    INDEX 01 01:13:35
  TRACK 45 AUDIO
    TITLE "4:cjc173_5618"
    INDEX 01 01:13:54
  TRACK 46 AUDIO
    TITLE "0:"
    INDEX 01 01:17:40
  TRACK 47 AUDIO
    TITLE "5:cjc173_5619"
    INDEX 01 01:17:60
  TRACK 48 AUDIO
    TITLE "0:"
    INDEX 01 01:23:63
  TRACK 49 AUDIO
    TITLE "3:cjc173_5620"
    INDEX 01 01:24:33
  TRACK 50 AUDIO
    TITLE "0:"
    INDEX 01 01:25:44
  TRACK 51 AUDIO
    TITLE "4:cjc173_5621"
    INDEX 01 01:25:67
  TRACK 52 AUDIO
    TITLE "0:"
    INDEX 01 01:28:24
  TRACK 53 AUDIO
    TITLE "5:cjc173_5622"
    INDEX 01 01:28:44
  TRACK 54 AUDIO
    TITLE "0:"
    INDEX 01 01:33:39
  TRACK 55 AUDIO
    TITLE "3:cjc173_5623"
    INDEX 01 01:34:13
  TRACK 56 AUDIO
    TITLE "0:"
    INDEX 01 01:35:15
  TRACK 57 AUDIO
    TITLE "4:cjc173_5624"
    INDEX 01 01:35:38
  TRACK 58 AUDIO
    TITLE "0:"
    INDEX 01 01:38:33
  TRACK 59 AUDIO
    TITLE "5:cjc173_5625"
    INDEX 01 01:38:54
  TRACK 60 AUDIO
    TITLE "0:"
    INDEX 01 01:42:46
